<svg id="visual" viewBox="0 0 1920 902" width="1920" height="902" xmlns="http://www.w3.org/2000/svg" xmlns:xlink="http://www.w3.org/1999/xlink" version="1.1"><rect x="0" y="0" width="1920" height="902" fill="#f1f1f1"></rect><path d="M0 491L32 500.7C64 510.3 128 529.7 192 541.2C256 552.7 320 556.3 384 553.5C448 550.7 512 541.3 576 533.7C640 526 704 520 768 520.3C832 520.7 896 527.3 960 520.8C1024 514.3 1088 494.7 1152 496.2C1216 497.7 1280 520.3 1344 521.8C1408 523.3 1472 503.7 1536 494.3C1600 485 1664 486 1728 495C1792 504 1856 521 1888 529.5L1920 538L1920 903L1888 903C1856 903 1792 903 1728 903C1664 903 1600 903 1536 903C1472 903 1408 903 1344 903C1280 903 1216 903 1152 903C1088 903 1024 903 960 903C896 903 832 903 768 903C704 903 640 903 576 903C512 903 448 903 384 903C320 903 256 903 192 903C128 903 64 903 32 903L0 903Z" fill="#d8e1ff"></path><path d="M0 568L32 571.3C64 574.7 128 581.3 192 586.8C256 592.3 320 596.7 384 600.5C448 604.3 512 607.7 576 602.8C640 598 704 585 768 584.7C832 584.3 896 596.7 960 601.8C1024 607 1088 605 1152 601.2C1216 597.3 1280 591.7 1344 587C1408 582.3 1472 578.7 1536 583C1600 587.3 1664 599.7 1728 598.3C1792 597 1856 582 1888 574.5L1920 567L1920 903L1888 903C1856 903 1792 903 1728 903C1664 903 1600 903 1536 903C1472 903 1408 903 1344 903C1280 903 1216 903 1152 903C1088 903 1024 903 960 903C896 903 832 903 768 903C704 903 640 903 576 903C512 903 448 903 384 903C320 903 256 903 192 903C128 903 64 903 32 903L0 903Z" fill="#c1cfff"></path><path d="M0 669L32 670.5C64 672 128 675 192 677C256 679 320 680 384 677C448 674 512 667 576 661C640 655 704 650 768 655.3C832 660.7 896 676.3 960 680.2C1024 684 1088 676 1152 677.7C1216 679.3 1280 690.7 1344 691C1408 691.3 1472 680.7 1536 676.8C1600 673 1664 676 1728 679.3C1792 682.7 1856 686.3 1888 688.2L1920 690L1920 903L1888 903C1856 903 1792 903 1728 903C1664 903 1600 903 1536 903C1472 903 1408 903 1344 903C1280 903 1216 903 1152 903C1088 903 1024 903 960 903C896 903 832 903 768 903C704 903 640 903 576 903C512 903 448 903 384 903C320 903 256 903 192 903C128 903 64 903 32 903L0 903Z" fill="#aabdff"></path><path d="M0 766L32 761.7C64 757.3 128 748.7 192 740C256 731.3 320 722.7 384 721.2C448 719.7 512 725.3 576 725C640 724.7 704 718.3 768 721.2C832 724 896 736 960 742.8C1024 749.7 1088 751.3 1152 749.2C1216 747 1280 741 1344 743.5C1408 746 1472 757 1536 762.8C1600 768.7 1664 769.3 1728 762.8C1792 756.3 1856 742.7 1888 735.8L1920 729L1920 903L1888 903C1856 903 1792 903 1728 903C1664 903 1600 903 1536 903C1472 903 1408 903 1344 903C1280 903 1216 903 1152 903C1088 903 1024 903 960 903C896 903 832 903 768 903C704 903 640 903 576 903C512 903 448 903 384 903C320 903 256 903 192 903C128 903 64 903 32 903L0 903Z" fill="#93abff"></path><path d="M0 838L32 835C64 832 128 826 192 825C256 824 320 828 384 830.7C448 833.3 512 834.7 576 831C640 827.3 704 818.7 768 811.7C832 804.7 896 799.3 960 800.2C1024 801 1088 808 1152 813.3C1216 818.7 1280 822.3 1344 824.3C1408 826.3 1472 826.7 1536 827C1600 827.3 1664 827.7 1728 824.8C1792 822 1856 816 1888 813L1920 810L1920 903L1888 903C1856 903 1792 903 1728 903C1664 903 1600 903 1536 903C1472 903 1408 903 1344 903C1280 903 1216 903 1152 903C1088 903 1024 903 960 903C896 903 832 903 768 903C704 903 640 903 576 903C512 903 448 903 384 903C320 903 256 903 192 903C128 903 64 903 32 903L0 903Z" fill="#7b98ff"></path></svg>