<svg id="visual" viewBox="0 0 900 600" width="900" height="600" xmlns="http://www.w3.org/2000/svg" xmlns:xlink="http://www.w3.org/1999/xlink" version="1.1"><rect x="0" y="0" width="900" height="600" fill="#f1f1f1"></rect><defs><linearGradient id="grad1_0" x1="33.3%" y1="0%" x2="100%" y2="100%"><stop offset="20%" stop-color="#f1f1f1" stop-opacity="1"></stop><stop offset="80%" stop-color="#f1f1f1" stop-opacity="1"></stop></linearGradient></defs><defs><linearGradient id="grad2_0" x1="0%" y1="0%" x2="66.7%" y2="100%"><stop offset="20%" stop-color="#f1f1f1" stop-opacity="1"></stop><stop offset="80%" stop-color="#f1f1f1" stop-opacity="1"></stop></linearGradient></defs><g transform="translate(900, 0)"><path d="M0 324.5C-61.9 319 -123.7 313.4 -162.2 281C-200.8 248.6 -215.9 189.3 -239 138C-262.2 86.7 -293.3 43.3 -324.5 0L0 0Z" fill="#a9b8ec"></path></g><g transform="translate(0, 600)"><path d="M0 -324.5C63.5 -319.9 127 -315.3 162.2 -281C197.5 -246.7 204.6 -182.8 226.9 -131C249.2 -79.2 286.9 -39.6 324.5 0L0 0Z" fill="#a9b8ec"></path></g></svg>