<svg id="visual" viewBox="0 0 1920 1080" width="1920" height="1080" xmlns="http://www.w3.org/2000/svg" xmlns:xlink="http://www.w3.org/1999/xlink" version="1.1"><rect x="0" y="0" width="1920" height="1080" fill="#f1f1f1"></rect><defs><linearGradient id="grad1_0" x1="43.8%" y1="0%" x2="100%" y2="100%"><stop offset="14.444444444444446%" stop-color="#a3b6fa" stop-opacity="1"></stop><stop offset="85.55555555555554%" stop-color="#a3b6fa" stop-opacity="1"></stop></linearGradient></defs><defs><linearGradient id="grad1_1" x1="43.8%" y1="0%" x2="100%" y2="100%"><stop offset="14.444444444444446%" stop-color="#a3b6fa" stop-opacity="1"></stop><stop offset="85.55555555555554%" stop-color="#b8c4f8" stop-opacity="1"></stop></linearGradient></defs><defs><linearGradient id="grad1_2" x1="43.8%" y1="0%" x2="100%" y2="100%"><stop offset="14.444444444444446%" stop-color="#ccd3f6" stop-opacity="1"></stop><stop offset="85.55555555555554%" stop-color="#b8c4f8" stop-opacity="1"></stop></linearGradient></defs><defs><linearGradient id="grad1_3" x1="43.8%" y1="0%" x2="100%" y2="100%"><stop offset="14.444444444444446%" stop-color="#ccd3f6" stop-opacity="1"></stop><stop offset="85.55555555555554%" stop-color="#dfe2f4" stop-opacity="1"></stop></linearGradient></defs><defs><linearGradient id="grad1_4" x1="43.8%" y1="0%" x2="100%" y2="100%"><stop offset="14.444444444444446%" stop-color="#f1f1f1" stop-opacity="1"></stop><stop offset="85.55555555555554%" stop-color="#dfe2f4" stop-opacity="1"></stop></linearGradient></defs><defs><linearGradient id="grad2_0" x1="0%" y1="0%" x2="56.3%" y2="100%"><stop offset="14.444444444444446%" stop-color="#a3b6fa" stop-opacity="1"></stop><stop offset="85.55555555555554%" stop-color="#a3b6fa" stop-opacity="1"></stop></linearGradient></defs><defs><linearGradient id="grad2_1" x1="0%" y1="0%" x2="56.3%" y2="100%"><stop offset="14.444444444444446%" stop-color="#b8c4f8" stop-opacity="1"></stop><stop offset="85.55555555555554%" stop-color="#a3b6fa" stop-opacity="1"></stop></linearGradient></defs><defs><linearGradient id="grad2_2" x1="0%" y1="0%" x2="56.3%" y2="100%"><stop offset="14.444444444444446%" stop-color="#b8c4f8" stop-opacity="1"></stop><stop offset="85.55555555555554%" stop-color="#ccd3f6" stop-opacity="1"></stop></linearGradient></defs><defs><linearGradient id="grad2_3" x1="0%" y1="0%" x2="56.3%" y2="100%"><stop offset="14.444444444444446%" stop-color="#dfe2f4" stop-opacity="1"></stop><stop offset="85.55555555555554%" stop-color="#ccd3f6" stop-opacity="1"></stop></linearGradient></defs><defs><linearGradient id="grad2_4" x1="0%" y1="0%" x2="56.3%" y2="100%"><stop offset="14.444444444444446%" stop-color="#dfe2f4" stop-opacity="1"></stop><stop offset="85.55555555555554%" stop-color="#f1f1f1" stop-opacity="1"></stop></linearGradient></defs><g transform="translate(1920, 0)"><path d="M0 810C-107.9 781.3 -215.7 752.6 -285.9 690.1C-356 627.7 -388.4 531.5 -470.2 470.2C-552.1 408.9 -683.5 382.5 -748.3 310C-813.2 237.4 -811.6 118.7 -810 0L0 0Z" fill="#e8e9f2"></path><path d="M0 648C-86.3 625 -172.6 602.1 -228.7 552.1C-284.8 502.2 -310.7 425.2 -376.2 376.2C-441.7 327.1 -546.8 306 -598.7 248C-650.6 189.9 -649.3 95 -648 0L0 0Z" fill="#d6daf5"></path><path d="M0 486C-64.7 468.8 -129.4 451.5 -171.5 414.1C-213.6 376.6 -233 318.9 -282.1 282.1C-331.3 245.4 -410.1 229.5 -449 186C-487.9 142.5 -487 71.2 -486 0L0 0Z" fill="#c2ccf7"></path><path d="M0 324C-43.1 312.5 -86.3 301 -114.3 276.1C-142.4 251.1 -155.3 212.6 -188.1 188.1C-220.8 163.6 -273.4 153 -299.3 124C-325.3 95 -324.6 47.5 -324 0L0 0Z" fill="#aebdf9"></path><path d="M0 162C-21.6 156.3 -43.1 150.5 -57.2 138C-71.2 125.5 -77.7 106.3 -94 94C-110.4 81.8 -136.7 76.5 -149.7 62C-162.6 47.5 -162.3 23.7 -162 0L0 0Z" fill="#a3b6fa"></path></g><g transform="translate(0, 1080)"><path d="M0 -810C119.9 -812.5 239.8 -815 310 -748.3C380.2 -681.7 400.8 -545.8 465.3 -465.3C529.8 -384.7 638.3 -359.5 703.1 -291.2C767.9 -222.9 788.9 -111.4 810 0L0 0Z" fill="#e8e9f2"></path><path d="M0 -648C95.9 -650 191.8 -652 248 -598.7C304.2 -545.3 320.6 -436.6 372.2 -372.2C423.8 -307.8 510.6 -287.6 562.5 -233C614.3 -178.3 631.1 -89.2 648 0L0 0Z" fill="#d6daf5"></path><path d="M0 -486C71.9 -487.5 143.9 -489 186 -449C228.1 -409 240.5 -327.5 279.2 -279.2C317.9 -230.8 383 -215.7 421.8 -174.7C460.7 -133.7 473.4 -66.9 486 0L0 0Z" fill="#c2ccf7"></path><path d="M0 -324C48 -325 95.9 -326 124 -299.3C152.1 -272.7 160.3 -218.3 186.1 -186.1C211.9 -153.9 255.3 -143.8 281.2 -116.5C307.1 -89.2 315.6 -44.6 324 0L0 0Z" fill="#aebdf9"></path><path d="M0 -162C24 -162.5 48 -163 62 -149.7C76 -136.3 80.2 -109.2 93.1 -93.1C106 -76.9 127.7 -71.9 140.6 -58.2C153.6 -44.6 157.8 -22.3 162 0L0 0Z" fill="#a3b6fa"></path></g></svg>