<!--suppress ALL -->
<svg id="visual" viewBox="0 0 1920 430" width="1920" height="430" xmlns="http://www.w3.org/2000/svg" version="1.1"><rect x="0" y="0" width="1920" height="430" fill="#f1f1f1"></rect><path d="M0 50L22.8 49.5C45.7 49 91.3 48 137 44.8C182.7 41.7 228.3 36.3 274 31.5C319.7 26.7 365.3 22.3 411.2 17.3C457 12.3 503 6.7 548.8 13.8C594.7 21 640.3 41 686 50.3C731.7 59.7 777.3 58.3 823 59.5C868.7 60.7 914.3 64.3 960 57C1005.7 49.7 1051.3 31.3 1097 21C1142.7 10.7 1188.3 8.3 1234 16.2C1279.7 24 1325.3 42 1371.2 53.2C1417 64.3 1463 68.7 1508.8 62.3C1554.7 56 1600.3 39 1646 34C1691.7 29 1737.3 36 1783 46C1828.7 56 1874.3 69 1897.2 75.5L1920 82L1920 431L1897.2 431C1874.3 431 1828.7 431 1783 431C1737.3 431 1691.7 431 1646 431C1600.3 431 1554.7 431 1508.8 431C1463 431 1417 431 1371.2 431C1325.3 431 1279.7 431 1234 431C1188.3 431 1142.7 431 1097 431C1051.3 431 1005.7 431 960 431C914.3 431 868.7 431 823 431C777.3 431 731.7 431 686 431C640.3 431 594.7 431 548.8 431C503 431 457 431 411.2 431C365.3 431 319.7 431 274 431C228.3 431 182.7 431 137 431C91.3 431 45.7 431 22.8 431L0 431Z" fill="#e7ecff"></path><path d="M0 83L22.8 76.3C45.7 69.7 91.3 56.3 137 59.2C182.7 62 228.3 81 274 92.8C319.7 104.7 365.3 109.3 411.2 110C457 110.7 503 107.3 548.8 109.3C594.7 111.3 640.3 118.7 686 119.3C731.7 120 777.3 114 823 110C868.7 106 914.3 104 960 103.5C1005.7 103 1051.3 104 1097 104.2C1142.7 104.3 1188.3 103.7 1234 104C1279.7 104.3 1325.3 105.7 1371.2 105.3C1417 105 1463 103 1508.8 101.7C1554.7 100.3 1600.3 99.7 1646 95.5C1691.7 91.3 1737.3 83.7 1783 83C1828.7 82.3 1874.3 88.7 1897.2 91.8L1920 95L1920 431L1897.2 431C1874.3 431 1828.7 431 1783 431C1737.3 431 1691.7 431 1646 431C1600.3 431 1554.7 431 1508.8 431C1463 431 1417 431 1371.2 431C1325.3 431 1279.7 431 1234 431C1188.3 431 1142.7 431 1097 431C1051.3 431 1005.7 431 960 431C914.3 431 868.7 431 823 431C777.3 431 731.7 431 686 431C640.3 431 594.7 431 548.8 431C503 431 457 431 411.2 431C365.3 431 319.7 431 274 431C228.3 431 182.7 431 137 431C91.3 431 45.7 431 22.8 431L0 431Z" fill="#dae1ff"></path><path d="M0 105L22.8 107.2C45.7 109.3 91.3 113.7 137 117.3C182.7 121 228.3 124 274 122.2C319.7 120.3 365.3 113.7 411.2 113.3C457 113 503 119 548.8 118.3C594.7 117.7 640.3 110.3 686 112.8C731.7 115.3 777.3 127.7 823 137C868.7 146.3 914.3 152.7 960 146.2C1005.7 139.7 1051.3 120.3 1097 112.2C1142.7 104 1188.3 107 1234 116C1279.7 125 1325.3 140 1371.2 146.5C1417 153 1463 151 1508.8 153.7C1554.7 156.3 1600.3 163.7 1646 156C1691.7 148.3 1737.3 125.7 1783 117.7C1828.7 109.7 1874.3 116.3 1897.2 119.7L1920 123L1920 431L1897.2 431C1874.3 431 1828.7 431 1783 431C1737.3 431 1691.7 431 1646 431C1600.3 431 1554.7 431 1508.8 431C1463 431 1417 431 1371.2 431C1325.3 431 1279.7 431 1234 431C1188.3 431 1142.7 431 1097 431C1051.3 431 1005.7 431 960 431C914.3 431 868.7 431 823 431C777.3 431 731.7 431 686 431C640.3 431 594.7 431 548.8 431C503 431 457 431 411.2 431C365.3 431 319.7 431 274 431C228.3 431 182.7 431 137 431C91.3 431 45.7 431 22.8 431L0 431Z" fill="#ccd7ff"></path><path d="M0 131L22.8 131.2C45.7 131.3 91.3 131.7 137 132.2C182.7 132.7 228.3 133.3 274 139.3C319.7 145.3 365.3 156.7 411.2 167.5C457 178.3 503 188.7 548.8 193.5C594.7 198.3 640.3 197.7 686 189.8C731.7 182 777.3 167 823 166.5C868.7 166 914.3 180 960 184.5C1005.7 189 1051.3 184 1097 180.2C1142.7 176.3 1188.3 173.7 1234 176.8C1279.7 180 1325.3 189 1371.2 184.5C1417 180 1463 162 1508.8 153.8C1554.7 145.7 1600.3 147.3 1646 154.5C1691.7 161.7 1737.3 174.3 1783 179.3C1828.7 184.3 1874.3 181.7 1897.2 180.3L1920 179L1920 431L1897.2 431C1874.3 431 1828.7 431 1783 431C1737.3 431 1691.7 431 1646 431C1600.3 431 1554.7 431 1508.8 431C1463 431 1417 431 1371.2 431C1325.3 431 1279.7 431 1234 431C1188.3 431 1142.7 431 1097 431C1051.3 431 1005.7 431 960 431C914.3 431 868.7 431 823 431C777.3 431 731.7 431 686 431C640.3 431 594.7 431 548.8 431C503 431 457 431 411.2 431C365.3 431 319.7 431 274 431C228.3 431 182.7 431 137 431C91.3 431 45.7 431 22.8 431L0 431Z" fill="#bfccff"></path><path d="M0 203L22.8 200.5C45.7 198 91.3 193 137 202C182.7 211 228.3 234 274 241.7C319.7 249.3 365.3 241.7 411.2 232C457 222.3 503 210.7 548.8 204C594.7 197.3 640.3 195.7 686 196.7C731.7 197.7 777.3 201.3 823 204.7C868.7 208 914.3 211 960 206.8C1005.7 202.7 1051.3 191.3 1097 187.2C1142.7 183 1188.3 186 1234 190.7C1279.7 195.3 1325.3 201.7 1371.2 208.7C1417 215.7 1463 223.3 1508.8 230.8C1554.7 238.3 1600.3 245.7 1646 236.3C1691.7 227 1737.3 201 1783 193.3C1828.7 185.7 1874.3 196.3 1897.2 201.7L1920 207L1920 431L1897.2 431C1874.3 431 1828.7 431 1783 431C1737.3 431 1691.7 431 1646 431C1600.3 431 1554.7 431 1508.8 431C1463 431 1417 431 1371.2 431C1325.3 431 1279.7 431 1234 431C1188.3 431 1142.7 431 1097 431C1051.3 431 1005.7 431 960 431C914.3 431 868.7 431 823 431C777.3 431 731.7 431 686 431C640.3 431 594.7 431 548.8 431C503 431 457 431 411.2 431C365.3 431 319.7 431 274 431C228.3 431 182.7 431 137 431C91.3 431 45.7 431 22.8 431L0 431Z" fill="#b2c2ff"></path><path d="M0 248L22.8 252.7C45.7 257.3 91.3 266.7 137 268C182.7 269.3 228.3 262.7 274 257.5C319.7 252.3 365.3 248.7 411.2 248.5C457 248.3 503 251.7 548.8 259.3C594.7 267 640.3 279 686 279.7C731.7 280.3 777.3 269.7 823 258C868.7 246.3 914.3 233.7 960 228C1005.7 222.3 1051.3 223.7 1097 234.2C1142.7 244.7 1188.3 264.3 1234 268.3C1279.7 272.3 1325.3 260.7 1371.2 251.2C1417 241.7 1463 234.3 1508.8 237.5C1554.7 240.7 1600.3 254.3 1646 256.8C1691.7 259.3 1737.3 250.7 1783 255.7C1828.7 260.7 1874.3 279.3 1897.2 288.7L1920 298L1920 431L1897.2 431C1874.3 431 1828.7 431 1783 431C1737.3 431 1691.7 431 1646 431C1600.3 431 1554.7 431 1508.8 431C1463 431 1417 431 1371.2 431C1325.3 431 1279.7 431 1234 431C1188.3 431 1142.7 431 1097 431C1051.3 431 1005.7 431 960 431C914.3 431 868.7 431 823 431C777.3 431 731.7 431 686 431C640.3 431 594.7 431 548.8 431C503 431 457 431 411.2 431C365.3 431 319.7 431 274 431C228.3 431 182.7 431 137 431C91.3 431 45.7 431 22.8 431L0 431Z" fill="#a5b7ff"></path><path d="M0 289L22.8 284C45.7 279 91.3 269 137 264C182.7 259 228.3 259 274 269.5C319.7 280 365.3 301 411.2 304.3C457 307.7 503 293.3 548.8 286.3C594.7 279.3 640.3 279.7 686 280C731.7 280.3 777.3 280.7 823 290.8C868.7 301 914.3 321 960 322.7C1005.7 324.3 1051.3 307.7 1097 296.2C1142.7 284.7 1188.3 278.3 1234 283.2C1279.7 288 1325.3 304 1371.2 315.7C1417 327.3 1463 334.7 1508.8 334.3C1554.7 334 1600.3 326 1646 317.2C1691.7 308.3 1737.3 298.7 1783 290.5C1828.7 282.3 1874.3 275.7 1897.2 272.3L1920 269L1920 431L1897.2 431C1874.3 431 1828.7 431 1783 431C1737.3 431 1691.7 431 1646 431C1600.3 431 1554.7 431 1508.8 431C1463 431 1417 431 1371.2 431C1325.3 431 1279.7 431 1234 431C1188.3 431 1142.7 431 1097 431C1051.3 431 1005.7 431 960 431C914.3 431 868.7 431 823 431C777.3 431 731.7 431 686 431C640.3 431 594.7 431 548.8 431C503 431 457 431 411.2 431C365.3 431 319.7 431 274 431C228.3 431 182.7 431 137 431C91.3 431 45.7 431 22.8 431L0 431Z" fill="#97adff"></path><path d="M0 302L22.8 305.2C45.7 308.3 91.3 314.7 137 321.3C182.7 328 228.3 335 274 333.8C319.7 332.7 365.3 323.3 411.2 326.2C457 329 503 344 548.8 343C594.7 342 640.3 325 686 318.7C731.7 312.3 777.3 316.7 823 323.7C868.7 330.7 914.3 340.3 960 340.3C1005.7 340.3 1051.3 330.7 1097 335.2C1142.7 339.7 1188.3 358.3 1234 366.5C1279.7 374.7 1325.3 372.3 1371.2 364.7C1417 357 1463 344 1508.8 342C1554.7 340 1600.3 349 1646 354.3C1691.7 359.7 1737.3 361.3 1783 355.7C1828.7 350 1874.3 337 1897.2 330.5L1920 324L1920 431L1897.2 431C1874.3 431 1828.7 431 1783 431C1737.3 431 1691.7 431 1646 431C1600.3 431 1554.7 431 1508.8 431C1463 431 1417 431 1371.2 431C1325.3 431 1279.7 431 1234 431C1188.3 431 1142.7 431 1097 431C1051.3 431 1005.7 431 960 431C914.3 431 868.7 431 823 431C777.3 431 731.7 431 686 431C640.3 431 594.7 431 548.8 431C503 431 457 431 411.2 431C365.3 431 319.7 431 274 431C228.3 431 182.7 431 137 431C91.3 431 45.7 431 22.8 431L0 431Z" fill="#89a2ff"></path><path d="M0 354L22.8 363.5C45.7 373 91.3 392 137 396.5C182.7 401 228.3 391 274 380.5C319.7 370 365.3 359 411.2 362.7C457 366.3 503 384.7 548.8 394.2C594.7 403.7 640.3 404.3 686 408C731.7 411.7 777.3 418.3 823 410.3C868.7 402.3 914.3 379.7 960 371C1005.7 362.3 1051.3 367.7 1097 378.2C1142.7 388.7 1188.3 404.3 1234 399.5C1279.7 394.7 1325.3 369.3 1371.2 359.3C1417 349.3 1463 354.7 1508.8 367C1554.7 379.3 1600.3 398.7 1646 397.8C1691.7 397 1737.3 376 1783 366.3C1828.7 356.7 1874.3 358.3 1897.2 359.2L1920 360L1920 431L1897.2 431C1874.3 431 1828.7 431 1783 431C1737.3 431 1691.7 431 1646 431C1600.3 431 1554.7 431 1508.8 431C1463 431 1417 431 1371.2 431C1325.3 431 1279.7 431 1234 431C1188.3 431 1142.7 431 1097 431C1051.3 431 1005.7 431 960 431C914.3 431 868.7 431 823 431C777.3 431 731.7 431 686 431C640.3 431 594.7 431 548.8 431C503 431 457 431 411.2 431C365.3 431 319.7 431 274 431C228.3 431 182.7 431 137 431C91.3 431 45.7 431 22.8 431L0 431Z" fill="#7b98ff"></path></svg>