<svg id="visual" viewBox="0 0 1920 450" width="1920" height="450" xmlns="http://www.w3.org/2000/svg" xmlns:xlink="http://www.w3.org/1999/xlink" version="1.1"><rect x="0" y="0" width="1920" height="450" fill="#f1f1f1"></rect><path d="M0 120L53.3 115C106.7 110 213.3 100 320 104.3C426.7 108.7 533.3 127.3 640 136.5C746.7 145.7 853.3 145.3 960 142.8C1066.7 140.3 1173.3 135.7 1280 131C1386.7 126.3 1493.3 121.7 1600 106.2C1706.7 90.7 1813.3 64.3 1866.7 51.2L1920 38L1920 451L1866.7 451C1813.3 451 1706.7 451 1600 451C1493.3 451 1386.7 451 1280 451C1173.3 451 1066.7 451 960 451C853.3 451 746.7 451 640 451C533.3 451 426.7 451 320 451C213.3 451 106.7 451 53.3 451L0 451Z" fill="#dfe6ff"></path><path d="M0 164L53.3 168.8C106.7 173.7 213.3 183.3 320 196.3C426.7 209.3 533.3 225.7 640 243C746.7 260.3 853.3 278.7 960 264C1066.7 249.3 1173.3 201.7 1280 187.8C1386.7 174 1493.3 194 1600 195.5C1706.7 197 1813.3 180 1866.7 171.5L1920 163L1920 451L1866.7 451C1813.3 451 1706.7 451 1600 451C1493.3 451 1386.7 451 1280 451C1173.3 451 1066.7 451 960 451C853.3 451 746.7 451 640 451C533.3 451 426.7 451 320 451C213.3 451 106.7 451 53.3 451L0 451Z" fill="#aebfff"></path><path d="M0 299L53.3 313.8C106.7 328.7 213.3 358.3 320 377.5C426.7 396.7 533.3 405.3 640 399.2C746.7 393 853.3 372 960 370.3C1066.7 368.7 1173.3 386.3 1280 392.2C1386.7 398 1493.3 392 1600 393.3C1706.7 394.7 1813.3 403.3 1866.7 407.7L1920 412L1920 451L1866.7 451C1813.3 451 1706.7 451 1600 451C1493.3 451 1386.7 451 1280 451C1173.3 451 1066.7 451 960 451C853.3 451 746.7 451 640 451C533.3 451 426.7 451 320 451C213.3 451 106.7 451 53.3 451L0 451Z" fill="#7b98ff"></path></svg>